<?xml version="1.0" encoding="UTF-8" standalone="no"?>
<!-- Generator: Adobe Illustrator 24.0.1, SVG Export Plug-In . SVG Version: 6.00 Build 0)  -->

<svg
   version="1.1"
   id="Layer_1"
   x="0px"
   y="0px"
   width="1200px"
   height="1200px"
   viewBox="0 0 1200 1200"
   style="enable-background:new 0 0 1200 1200;"
   xml:space="preserve"
   sodipodi:docname="initEdit.svg"
   inkscape:version="1.2.1 (9c6d41e4, 2022-07-14)"
   xmlns:inkscape="http://www.inkscape.org/namespaces/inkscape"
   xmlns:sodipodi="http://sodipodi.sourceforge.net/DTD/sodipodi-0.dtd"
   xmlns="http://www.w3.org/2000/svg"
   xmlns:svg="http://www.w3.org/2000/svg"><defs
   id="defs274" /><sodipodi:namedview
   id="namedview272"
   pagecolor="#ffffff"
   bordercolor="#000000"
   borderopacity="0.25"
   inkscape:showpageshadow="2"
   inkscape:pageopacity="0.0"
   inkscape:pagecheckerboard="0"
   inkscape:deskcolor="#d1d1d1"
   showgrid="false"
   inkscape:zoom="0.48229806"
   inkscape:cx="600.25122"
   inkscape:cy="587.81078"
   inkscape:window-width="1440"
   inkscape:window-height="791"
   inkscape:window-x="0"
   inkscape:window-y="25"
   inkscape:window-maximized="0"
   inkscape:current-layer="Layer_1" />
<g
   id="skeleton_1_"
   inkscape:label="skeleton"
   sodipodi:insensitive="true">
	<polygon
   style="fill:none;stroke:#000000;stroke-miterlimit:10"
   points="569.1,565.3 685.5,564.5 731.7,349.5 518.8,349.5 "
   id="polygon155" />
	<polyline
   style="fill:none;stroke:#000000;stroke-miterlimit:10"
   points="517.8,349.5 415.1,349.5 251.8,355.8  "
   id="polyline157" />
	<polyline
   style="fill:none;stroke:#000000;stroke-miterlimit:10"
   points="733.2,349.1 836.4,349.1 999.7,355.5  "
   id="polyline159" />
	<polyline
   style="fill:none;stroke:#000000;stroke-miterlimit:10"
   points="569.1,565.3 575.5,725.5 575.5,933.5  "
   id="polyline161" />
	<polyline
   style="fill:none;stroke:#000000;stroke-miterlimit:10"
   points="685.5,564.5 685.5,725.5 685.5,933.5  "
   id="polyline163" />
	<polyline
   style="fill:none;stroke:#000000;stroke-miterlimit:10"
   points="624.5,170 604.7,172.5 592.2,182 583.6,196.1    581.1,205.4 580.3,217.1 580.3,226.6 581.1,248.3 587.9,268.3 599.5,280.8 609.5,287.5 624.5,290.7 639.3,287.9 649.3,281.2    660.9,268.6 667.7,248.6 668.5,227 668.5,217.4 667.7,205.7 665.2,196.5 657,182 644.4,172.5 624.5,170  "
   id="polyline165" />
	<polyline
   style="fill:none;stroke:#000000;stroke-miterlimit:10"
   points="588.5,206.9 592.5,203.2 598.7,202.2 606,202.2    615.8,206.2  "
   id="polyline167" />
	<polygon
   style="fill:none;stroke:#000000;stroke-miterlimit:10"
   points="599.9,211.4 606.2,211.4 611.4,215.6 606.2,216.6 599.9,217.4 594.7,215.1 "
   id="polygon169" />
	<polyline
   style="fill:none;stroke:#000000;stroke-miterlimit:10"
   points="613,233.2 618.2,233.2 623.7,234 623.7,228.7    623.7,221.6 623.7,216.1 623.7,210.3  "
   id="polyline171" />
	<polyline
   style="fill:none;stroke:#000000;stroke-miterlimit:10"
   points="660,206.5 656,203.6 649.7,202.1 642.4,202.5    632.4,205.7  "
   id="polyline173" />
	<polygon
   style="fill:none;stroke:#000000;stroke-miterlimit:10"
   points="648.8,211.4 642.5,211.4 637.4,215.6 642.5,216.6 648.8,217.4 654.1,215.1 "
   id="polygon175" />
	<polyline
   style="fill:none;stroke:#000000;stroke-miterlimit:10"
   points="634.1,233.2 629.1,233.2 623.7,234  "
   id="polyline177" />
	<polygon
   style="fill:none;stroke:#000000;stroke-miterlimit:10"
   points="613.9,251.9 620.4,250.8 624.5,251.7 628.7,250.8 635.1,251.9 642,255.3 635.6,261.6 628.5,264.4 624.5,264.9 620.4,264.4 613.4,261.6 607,255.3 "
   id="polygon179" />
	<polyline
   style="fill:none;stroke:#000000;stroke-miterlimit:10"
   points="607,255.3 610.6,255.6 620.6,254.8 624.5,255.3    628.5,254.8 638.4,255.6 642,255.3  "
   id="polyline181" />
	<polyline
   style="fill:none;stroke:#000000;stroke-miterlimit:10"
   points="607,255.3 610.6,255.6 620.6,257.7 624.5,258.5    628.5,257.7 638.4,255.6 642,255.3  "
   id="polyline183" />
	<circle
   id="rightShoulder"
   cx="518.90002"
   cy="349.20001"
   r="8.1999998" />
	<circle
   id="rightElbow"
   cx="415.39999"
   cy="349.29999"
   r="8.1999998" />
	<circle
   id="rightWrist"
   cx="252"
   cy="355.70001"
   r="8.1999998" />
	<circle
   id="rightHip"
   cx="569.20001"
   cy="565"
   r="8.1999998" />
	<circle
   id="rightKnee"
   cx="575.59998"
   cy="725.20001"
   r="8.1999998" />
	<circle
   id="rightAnkle"
   cx="575.59998"
   cy="933.20001"
   r="8.1999998" />
	<circle
   id="leftElbow"
   cx="836.20001"
   cy="348.89999"
   r="8.1999998" />
	<circle
   id="leftWrist"
   cx="999.59998"
   cy="355.20001"
   r="8.1999998" />
	<circle
   id="leftHip"
   cx="685.59998"
   cy="564.20001"
   r="8.1999998" />
	<circle
   id="leftKnee"
   cx="685.59998"
   cy="725.20001"
   r="8.1999998" />
	<circle
   id="leftAnkle"
   cx="685.59998"
   cy="933.20001"
   r="8.1999998" />
	<circle
   id="rightEye0"
   cx="594.70001"
   cy="215.10001"
   r="0.80000001" />
	<circle
   id="rightBrow1"
   cx="592.5"
   cy="203.2"
   r="0.80000001" />
	<circle
   id="rightBrow4"
   cx="615.79999"
   cy="206.2"
   r="0.80000001" />
	<circle
   id="nose1"
   cx="623.70001"
   cy="216.10001"
   r="0.80000001" />
	<circle
   id="rightBrow3"
   cx="606"
   cy="202.2"
   r="0.80000001" />
	<circle
   id="rightEye1"
   cx="599.90002"
   cy="211.39999"
   r="0.80000001" />
	<circle
   id="rightBrow0"
   cx="588.5"
   cy="206.89999"
   r="0.80000001" />
	<circle
   id="rightBrow2"
   cx="598.70001"
   cy="202.2"
   r="0.80000001" />
	<circle
   id="rightEye5"
   cx="599.90002"
   cy="217.39999"
   r="0.80000001" />
	<circle
   id="rightEye2"
   cx="606.20001"
   cy="211.39999"
   r="0.80000001" />
	<circle
   id="rightEye3"
   cx="611.40002"
   cy="215.60001"
   r="0.80000001" />
	<circle
   id="nose0"
   cx="623.70001"
   cy="210.3"
   r="0.80000001" />
	<circle
   id="nose3"
   cx="623.70001"
   cy="228.7"
   r="0.80000001" />
	<circle
   id="rightNose0"
   cx="613"
   cy="233.2"
   r="0.80000001" />
	<circle
   id="rightMouthCorner"
   cx="607"
   cy="255.3"
   r="0.80000001" />
	<circle
   id="rightNose1"
   cx="618.20001"
   cy="233.2"
   r="0.80000001" />
	<circle
   id="rightUpperLipTop0"
   cx="613.90002"
   cy="251.89999"
   r="0.80000001" />
	<circle
   id="nose2"
   cx="623.70001"
   cy="221.60001"
   r="0.80000001" />
	<circle
   id="nose4"
   cx="623.70001"
   cy="234"
   r="0.80000001" />
	<circle
   id="upperLipTopMid"
   cx="624.5"
   cy="251.7"
   r="0.80000001" />
	<circle
   id="rightUpperLipTop1"
   cx="620.40002"
   cy="250.8"
   r="0.80000001" />
	<path
   id="rightMiddleLip"
   d="m 610.6,254.8 c 0.4,0 0.8,0.4 0.8,0.8 0,0.4 -0.4,0.8 -0.8,0.8 -0.4,0 -0.8,-0.4 -0.8,-0.8 0,-0.4 0.4,-0.8 0.8,-0.8 z" />
	<circle
   id="lowerLipBottomMid"
   cx="624.5"
   cy="264.89999"
   r="0.80000001" />
	<circle
   id="upperLipBottomMid"
   cx="624.5"
   cy="255.3"
   r="0.80000001" />
	<circle
   id="lowerLipTopMid"
   cx="624.5"
   cy="258.39999"
   r="0.80000001" />
	<circle
   id="rightUpperLipBottom1"
   cx="620.59998"
   cy="254.8"
   r="0.80000001" />
	<circle
   id="rightLowerLipTop0"
   cx="620.59998"
   cy="257.70001"
   r="0.80000001" />
	<circle
   id="rightLowerLipBottom1"
   cx="620.40002"
   cy="264.39999"
   r="0.80000001" />
	<circle
   id="rightLowerLipBottom0"
   cx="613.40002"
   cy="261.60001"
   r="0.80000001" />
	<circle
   id="rightEye4"
   cx="606.20001"
   cy="216.60001"
   r="0.80000001" />
	<circle
   id="jawMid"
   cx="624.5"
   cy="290.70001"
   r="0.80000001" />
	<circle
   id="rightJaw7"
   cx="609.5"
   cy="287.5"
   r="0.80000001" />
	<circle
   id="rightJaw6"
   cx="599.5"
   cy="280.79999"
   r="0.80000001" />
	<circle
   id="rightJaw5"
   cx="587.90002"
   cy="268.29999"
   r="0.80000001" />
	<circle
   id="rightJaw4"
   cx="581.09998"
   cy="248.3"
   r="0.80000001" />
	<circle
   id="rightJaw3"
   cx="580.29999"
   cy="226.60001"
   r="0.80000001" />
	<circle
   id="rightJaw2"
   cx="580.29999"
   cy="217.10001"
   r="0.80000001" />
	<circle
   id="rightJaw1"
   cx="581.09998"
   cy="205.39999"
   r="0.80000001" />
	<circle
   id="rightJaw0"
   cx="583.59998"
   cy="196.10001"
   r="0.80000001" />
	<circle
   id="topMid"
   cx="624.70001"
   cy="170"
   r="0.80000001" />
	<circle
   id="leftTop0"
   cx="644.40002"
   cy="172.5"
   r="0.80000001" />
	<circle
   id="leftTop1"
   cx="657"
   cy="182"
   r="0.80000001" />
	<circle
   id="leftEye0"
   cx="654.29999"
   cy="215.10001"
   r="0.80000001" />
	<circle
   id="leftBrow1"
   cx="656.20001"
   cy="203.60001"
   r="0.80000001" />
	<circle
   id="leftBrow4"
   cx="632.59998"
   cy="205.7"
   r="0.80000001" />
	<circle
   id="leftBrow3"
   cx="642.59998"
   cy="202.5"
   r="0.80000001" />
	<circle
   id="leftEye1"
   cx="649.09998"
   cy="211.39999"
   r="0.80000001" />
	<circle
   id="leftBrow0"
   cx="660.20001"
   cy="206.5"
   r="0.80000001" />
	<circle
   id="leftBrow2"
   cx="649.90002"
   cy="202.10001"
   r="0.80000001" />
	<circle
   id="leftEye5"
   cx="649.09998"
   cy="217.39999"
   r="0.80000001" />
	<circle
   id="leftEye2"
   cx="642.79999"
   cy="211.39999"
   r="0.80000001" />
	<circle
   id="leftEye3"
   cx="637.59998"
   cy="215.60001"
   r="0.80000001" />
	<circle
   id="leftNose0"
   cx="634.09998"
   cy="233.2"
   r="0.80000001" />
	<circle
   id="leftMouthCorner"
   cx="642"
   cy="255.3"
   r="0.80000001" />
	<circle
   id="leftNose1"
   cx="629.29999"
   cy="233.2"
   r="0.80000001" />
	<circle
   id="leftUpperLipTop0"
   cx="635.09998"
   cy="251.89999"
   r="0.80000001" />
	<circle
   id="leftUpperLipTop1"
   cx="628.70001"
   cy="250.8"
   r="0.80000001" />
	<path
   id="leftMiddleLip"
   d="m 638.4,254.8 c 0.4,0 0.8,0.4 0.8,0.8 0,0.4 -0.4,0.8 -0.8,0.8 -0.4,0 -0.8,-0.4 -0.8,-0.8 0,-0.4 0.4,-0.8 0.8,-0.8 z" />
	<circle
   id="leftUpperLipBottom1"
   cx="628.5"
   cy="254.8"
   r="0.80000001" />
	<circle
   id="leftLowerLipTop0"
   cx="628.5"
   cy="257.70001"
   r="0.80000001" />
	<circle
   id="leftLowerLipBottom1"
   cx="628.70001"
   cy="264.39999"
   r="0.80000001" />
	<circle
   id="leftLowerLipBottom0"
   cx="635.59998"
   cy="261.60001"
   r="0.80000001" />
	<circle
   id="leftEye4"
   cx="642.79999"
   cy="216.60001"
   r="0.80000001" />
	<circle
   id="leftJaw7"
   cx="639.29999"
   cy="287.89999"
   r="0.80000001" />
	<circle
   id="leftJaw6"
   cx="649.29999"
   cy="281.20001"
   r="0.80000001" />
	<circle
   id="leftJaw5"
   cx="660.90002"
   cy="268.60001"
   r="0.80000001" />
	<circle
   id="leftJaw4"
   cx="667.70001"
   cy="248.60001"
   r="0.80000001" />
	<circle
   id="leftJaw3"
   cx="668.5"
   cy="227"
   r="0.80000001" />
	<circle
   id="leftJaw2"
   cx="668.5"
   cy="217.39999"
   r="0.80000001" />
	<circle
   id="leftJaw1"
   cx="667.70001"
   cy="205.7"
   r="0.80000001" />
	<circle
   id="leftJaw0"
   cx="665.20001"
   cy="196.5"
   r="0.80000001" />
	<circle
   id="rightTop0"
   cx="604.79999"
   cy="172.5"
   r="0.80000001" />
	<circle
   id="rightTop1"
   cx="592.20001"
   cy="182"
   r="0.80000001" />
	<circle
   id="leftShoulder"
   cx="731.79999"
   cy="349.20001"
   r="8.1999998" />
</g>
<g
   id="g1194"
   inkscape:label="illustration"><path
     style="fill:#ff6600"
     d="m 414.68133,350.40572 -58.0631,22.17543 -49.75405,60.76084 70.49583,62.2022 107.81714,-89.15649 -23.99543,99.4948 26.06884,114.06608 284.05671,-4.14681 24.60312,-126.47207 -28.74993,-74.64837 91.22989,76.71604 58.05539,-55.98198 -33.1745,-58.05538 -47.68836,-22.80748 -4.14682,-4.14681"
     id="path711"
     sodipodi:nodetypes="ccccccccccccccc" /><path
     style="fill:#008000"
     d="m 491.39737,619.94859 -58.51566,81.46939 -55.5217,115.50424 213.56088,-2.07341 33.17451,-101.59693 22.80747,101.59693 196.97363,-2.0734 -29.53218,-100.16761 -51.33068,-96.80603 z"
     id="path715"
     sodipodi:nodetypes="cccccccccc" /><path
     style="fill:#280b0b"
     d="m 684.22421,371.1398 -33.17451,47.68835 58.05538,-2.07341 z"
     id="path1107" /><path
     style="fill:#280b0b"
     d="m 566.04001,376.32331 -33.17451,47.68835 58.05538,-2.07341 z"
     id="path1107-6" /><path
     style="fill:#280b0b"
     d="m 624.0954,458.22287 -35.24791,55.98198 60.12879,-2.0734 z"
     id="path1184" /><path
     style="fill:#280b0b"
     d="m 545.30595,541.1591 29.0277,76.7161 2.0734,-51.8352 18.66066,49.7618 8.29363,-43.5416 18.66066,41.4682 V 566.04 l 22.80747,43.5415 6.22022,-43.5415 18.66066,53.9086 8.29363,-43.5416 8.29362,39.3948 22.80748,-78.7895 -31.1011,24.8809 -12.44044,-10.367 -10.36704,4.1468 -14.51384,-6.2202 -4.14682,8.2936 -14.51384,-12.4405 -22.80747,16.5873 -20.73407,-16.5873 -10.36703,14.5139 z"
     id="path1186" /></g></svg>
