<?xml version="1.0" encoding="iso-8859-1"?>
<!-- Generator: Adobe Illustrator 19.0.0, SVG Export Plug-In . SVG Version: 6.00 Build 0)  -->
<svg version="1.1" id="Capa_1" xmlns="http://www.w3.org/2000/svg" xmlns:xlink="http://www.w3.org/1999/xlink" x="0px" y="0px"
	 viewBox="0 0 464 464" style="enable-background:new 0 0 464 464;" xml:space="preserve">
<g>
	<path style="fill:#FFEBE1;" d="M316.483,429.261V343.41c29.757-4.278,51.341-32.024,46.949-62.767L348.483,176h-47.759l-12.571,88
		h56.74l2.701,18.906c1.621,11.344-1.756,22.815-9.264,31.472C330.821,323.035,319.942,328,308.483,328
		c-2.496,0-4.96-0.249-7.372-0.707c6.384,6.505,14.366,11.478,23.372,14.229c-5.129,1.567-10.561,2.478-16.242,2.478
		c-2.64,0-5.225-0.203-7.759-0.556l0,85.818c0,11.013-7.495,20.612-18.179,23.283L268.483,456v8h80v-8l-13.821-3.455
		C323.978,449.874,316.483,440.274,316.483,429.261z"/>
	<path style="fill:#FFEBE1;" d="M198.983,151.186L180,136V40h-16h-2.667v96l-13.921,15.186C137.671,161.813,132,177.903,132,194.915
		V224h64c4.418,0,8,3.582,8,8v208c0,4.418-3.582,8-8,8h-64c0,8.836,5.253,16,11.733,16H204c8.837,0,16-7.163,16-16V194.915
		C220,177.903,212.267,161.814,198.983,151.186z"/>
	<path style="fill:#FFEBE1;" d="M116,464c-1.105,0-2.183-0.112-3.225-0.325C113.817,463.888,114.896,464,116,464z"/>
	<path style="fill:#FFEBE1;" d="M100,194.915L100,194.915c0-1.063,0.03-2.123,0.09-3.178C100.03,192.792,100,193.852,100,194.915z"
		/>
	<path style="fill:#FFEBE1;" d="M100.325,451.225c-0.213-1.042-0.325-2.12-0.325-3.225C100,449.104,100.112,450.183,100.325,451.225
		z"/>
	<path style="fill:#FFEBE1;" d="M100.325,451.225c1.279,6.249,6.201,11.172,12.45,12.45
		C106.526,462.396,101.604,457.474,100.325,451.225z"/>
	<path style="fill:#FFE1CD;" d="M132,448h-8c-0.93,0-1.818-0.167-2.648-0.458c-2.309-0.811-4.131-2.647-4.92-4.966
		c-0.064-0.187-0.118-0.377-0.168-0.569c-0.1-0.387-0.181-0.781-0.223-1.189C116.014,440.549,116,440.276,116,440v-48h-16v56
		c0,1.104,0.112,2.183,0.325,3.225c1.279,6.249,6.201,11.172,12.45,12.45c1.042,0.213,2.12,0.325,3.225,0.325h27.733
		C137.253,464,132,456.836,132,448z"/>
	<path style="fill:#FFE1CD;" d="M116,232c0-4.418,3.582-8,8-8h8v-29.085c0-17.012,5.671-33.102,15.413-43.729L161.334,136V40H140v96
		l-18.983,15.186c-12.454,9.963-20.029,24.727-20.927,40.551c-0.06,1.055-0.09,2.115-0.09,3.178V280h16V232z"/>
	<path style="fill:#FFE1CD;" d="M156,8v24c0,4.418,3.582,8,8,8h16c4.418,0,8-3.582,8-8V8c0-4.418-3.582-8-8-8h-16
		C159.582,0,156,3.582,156,8z"/>
	<path style="fill:#FFE1CD;" d="M132.264,34.006c-0.1-0.387-0.181-0.781-0.223-1.189C132.083,33.225,132.164,33.62,132.264,34.006z"
		/>
	<path style="fill:#FFE1CD;" d="M132.432,34.576c0.789,2.319,2.611,4.155,4.92,4.966C135.043,38.731,133.221,36.895,132.432,34.576z
		"/>
	<path style="fill:#F0D4BE;" d="M164,40c-4.418,0-8-3.582-8-8V8c0-4.418,3.582-8,8-8h-24c-4.418,0-8,3.582-8,8v24
		c0,0.276,0.014,0.549,0.041,0.818c0.041,0.407,0.122,0.802,0.223,1.189c0.05,0.193,0.104,0.383,0.168,0.569
		c0.789,2.319,2.611,4.155,4.92,4.966C138.182,39.833,139.071,40,140,40h21.333H164z"/>
	<path style="fill:#D2504B;" d="M164,280c4.418,0,8,3.582,8,8v96c0,4.418-3.582,8-8,8h-32v56h64c4.418,0,8-3.582,8-8V232
		c0-4.418-3.582-8-8-8h-64v56H164z"/>
	<path style="fill:#D2504B;" d="M116.432,442.576c0.789,2.319,2.611,4.155,4.92,4.966
		C119.043,446.731,117.221,444.895,116.432,442.576z"/>
	<path style="fill:#D2504B;" d="M116.264,442.006c-0.1-0.387-0.181-0.781-0.223-1.189
		C116.083,441.225,116.164,441.62,116.264,442.006z"/>
	<path style="fill:#BE3C3C;" d="M116,232v48h16v-56h-8C119.582,224,116,227.582,116,232z"/>
	<path style="fill:#BE3C3C;" d="M116,392v48c0,0.276,0.014,0.549,0.041,0.818c0.041,0.407,0.122,0.802,0.223,1.189
		c0.05,0.193,0.104,0.383,0.168,0.569c0.789,2.319,2.611,4.155,4.92,4.966c0.83,0.292,1.719,0.458,2.648,0.458h8v-56H116z"/>
	<path style="fill:#7D5050;" d="M172,384v-96c0-4.418-3.582-8-8-8h-32v112h32C168.418,392,172,388.418,172,384z"/>
	<path style="fill:#FFE1CD;" d="M324.483,341.522c-9.006-2.751-16.988-7.725-23.372-14.229c-6.485-1.231-12.561-4.062-17.671-8.252
		c-0.01-0.008-0.02-0.016-0.03-0.024c-0.26-0.213-0.512-0.435-0.767-0.655c-0.246-0.212-0.492-0.426-0.733-0.645
		c-0.209-0.19-0.416-0.384-0.622-0.579c-0.294-0.279-0.584-0.564-0.87-0.853c-0.16-0.161-0.321-0.32-0.478-0.484
		c-0.444-0.464-0.88-0.935-1.303-1.423c-7.508-8.657-10.885-20.128-9.264-31.472L272.074,264h16.079h0l12.571-88h-32.241h-0.242
		l-14.949,104.643c-4.404,30.826,17.309,58.638,47.191,62.801c2.533,0.353,5.119,0.556,7.759,0.556
		C313.922,344,319.353,343.089,324.483,341.522z"/>
	<path style="fill:#D2504B;" d="M281.91,317.717c-0.21-0.19-0.416-0.384-0.622-0.579
		C281.494,317.334,281.701,317.527,281.91,317.717z"/>
	<path style="fill:#D2504B;" d="M283.41,319.017c-0.26-0.213-0.512-0.436-0.767-0.655
		C282.898,318.582,283.151,318.804,283.41,319.017z"/>
	<path style="fill:#D2504B;" d="M285.775,280.643c-2.563,17.939,3.761,34.806,15.357,46.624c-6.489-1.229-12.576-4.045-17.692-8.226
		c5.11,4.19,11.186,7.021,17.671,8.252c2.412,0.458,4.876,0.707,7.372,0.707c11.459,0,22.338-4.965,29.846-13.622
		c7.508-8.657,10.885-20.128,9.264-31.472L344.892,264h-56.74h0L285.775,280.643z"/>
	<path style="fill:#D2504B;" d="M280.418,316.285c-0.16-0.161-0.321-0.32-0.478-0.484
		C280.097,315.965,280.258,316.124,280.418,316.285z"/>
	<path style="fill:#BE3C3C;" d="M301.132,327.267c-11.596-11.817-17.919-28.685-15.357-46.624L288.152,264h-16.079l-2.701,18.906
		c-1.621,11.344,1.756,22.815,9.264,31.472c0.423,0.488,0.859,0.959,1.303,1.423c0.157,0.164,0.318,0.323,0.478,0.484
		c0.286,0.289,0.576,0.574,0.87,0.853c0.206,0.195,0.412,0.389,0.622,0.579c0.241,0.219,0.487,0.432,0.733,0.645
		c0.255,0.22,0.507,0.443,0.767,0.655c0.01,0.008,0.02,0.016,0.03,0.024C288.556,323.222,294.643,326.037,301.132,327.267z"/>
	<polygon style="fill:#6B3C41;" points="132,392 132,280 116,280 100,280 100,392 116,392 	"/>
</g>
<g>
</g>
<g>
</g>
<g>
</g>
<g>
</g>
<g>
</g>
<g>
</g>
<g>
</g>
<g>
</g>
<g>
</g>
<g>
</g>
<g>
</g>
<g>
</g>
<g>
</g>
<g>
</g>
<g>
</g>
</svg>
